<svg width="22" height="22" viewBox="0 0 22 22" fill="none" xmlns="http://www.w3.org/2000/svg">
<path fill-rule="evenodd" clip-rule="evenodd" d="M11 22C17.0751 22 22 17.0751 22 11C22 4.92487 17.0751 0 11 0C4.92487 0 0 4.92487 0 11C0 17.0751 4.92487 22 11 22ZM15.9837 8.14273C16.061 8.06714 16.061 7.9446 15.9837 7.86902L15.4934 7.39002C15.4161 7.31444 15.2907 7.31444 15.2133 7.39002L9.22488 13.2414L6.78668 10.859C6.70933 10.7834 6.58391 10.7834 6.50656 10.859L6.01635 11.338C5.939 11.4136 5.939 11.5361 6.01635 11.6117L9.08482 14.61C9.16217 14.6856 9.28758 14.6856 9.36494 14.61L15.9837 8.14273Z" fill="#0057FF"/>
</svg>
