<svg width="30" height="30" viewBox="0 0 30 30" fill="none" xmlns="http://www.w3.org/2000/svg">
<path fill-rule="evenodd" clip-rule="evenodd" d="M27.5896 15C27.5896 16.3833 26.4729 17.5 25.0896 17.5C23.7063 17.5 22.5896 16.3833 22.5896 15C22.5896 13.6167 23.7063 12.5 25.0896 12.5C26.4729 12.5 27.5896 13.6167 27.5896 15ZM17.5 15C17.5 16.3833 16.3833 17.5 15 17.5C13.6166 17.5 12.5 16.3833 12.5 15C12.5 13.6167 13.6166 12.5 15 12.5C16.3833 12.5 17.5 13.6167 17.5 15ZM4.9104 17.5C6.29374 17.5 7.4104 16.3833 7.4104 15C7.4104 13.6167 6.29374 12.5 4.9104 12.5C3.52707 12.5 2.4104 13.6167 2.4104 15C2.4104 16.3833 3.52707 17.5 4.9104 17.5Z" fill="#141618"/>
</svg>
