<svg width="24" height="24" viewBox="0 0 24 24" fill="none" xmlns="http://www.w3.org/2000/svg">
<path fill-rule="evenodd" clip-rule="evenodd" d="M10.073 3.53854C10.2292 3.38233 10.4825 3.38233 10.6387 3.53854L11.6286 4.52849C11.7848 4.6847 11.7848 4.93797 11.6286 5.09418L5.82274 10.9001H21.7068C21.9277 10.9001 22.1068 11.0791 22.1068 11.3001V12.7001C22.1068 12.921 21.9277 13.1001 21.7068 13.1001H5.82275L11.6286 18.9059C11.7848 19.0621 11.7848 19.3154 11.6286 19.4716L10.6387 20.4616C10.4825 20.6178 10.2292 20.6178 10.073 20.4616L1.89432 12.2829C1.73811 12.1267 1.73811 11.8734 1.89432 11.7172L10.073 3.53854Z" fill="#141618"/>
</svg>
