<svg width="17" height="16" viewBox="0 0 17 16" fill="none" xmlns="http://www.w3.org/2000/svg">
<path fill-rule="evenodd" clip-rule="evenodd" d="M9.78295 2.35887C9.67881 2.25473 9.50997 2.25473 9.40583 2.35887L8.74586 3.01883C8.64172 3.12297 8.64172 3.29182 8.74586 3.39596L12.6165 7.26654H2.02709C1.87982 7.26654 1.76042 7.38593 1.76042 7.53321V8.46654C1.76042 8.61382 1.87982 8.73321 2.02709 8.73321H12.6165L8.74586 12.6038C8.64172 12.7079 8.64172 12.8768 8.74586 12.9809L9.40583 13.6409C9.50997 13.745 9.67881 13.745 9.78295 13.6409L15.2354 8.18844C15.3395 8.0843 15.3395 7.91545 15.2354 7.81132L9.78295 2.35887Z" fill="white"/>
</svg>
