<svg width="40" height="40" viewBox="0 0 40 40" fill="none" xmlns="http://www.w3.org/2000/svg">
<circle cx="20.0003" cy="19.9998" r="17.1429" fill="#E8ECF0"/>
<path d="M18.7608 26.8038C18.8437 27.3984 19.3669 27.8569 20 27.8569C20.6907 27.8569 21.2506 27.3113 21.2506 26.6384V16.311L25.3632 20.3361L25.5033 20.4544C25.9922 20.8094 26.687 20.7715 27.1319 20.3398C27.6212 19.865 27.6229 19.0934 27.1357 18.6166L20.8862 12.5013L20.8824 12.4981C20.8414 12.4583 20.7974 12.4211 20.7508 12.3871L20.7457 12.3827C20.2555 12.027 19.5581 12.0665 19.1138 12.5013L12.8644 18.6166L12.7436 18.7535C12.3814 19.2312 12.4233 19.9082 12.8682 20.3398L13.0087 20.4575C13.499 20.8104 14.1937 20.7696 14.6367 20.3361L18.7495 16.3133V21.4758V26.6384L18.7608 26.8038Z" fill="white"/>
</svg>
